<svg version="1.1" id="Layer_1" xmlns="http://www.w3.org/2000/svg" xmlns:xlink="http://www.w3.org/1999/xlink" x="0px" y="0px"
	 width="100%" viewBox="0 0 1779 849" enable-background="new 0 0 1779 849" xml:space="preserve">
<path fill="#FFFFFF" opacity="1.000000" stroke="none" 
	d="
M1038.000000,850.000000 
	C692.000000,850.000000 346.500000,850.000000 1.000000,850.000000 
	C1.000000,567.000000 1.000000,284.000000 1.000000,1.000000 
	C594.000000,1.000000 1187.000000,1.000000 1780.000000,1.000000 
	C1780.000000,284.000000 1780.000000,567.000000 1780.000000,850.000000 
	C1532.833374,850.000000 1285.666626,850.000000 1038.000000,850.000000 
M360.785919,554.656555 
	C354.188568,552.413208 347.681427,549.844116 340.977051,547.987183 
	C320.477722,542.309387 299.495453,539.870300 278.268097,539.869507 
	C238.408386,539.867981 198.626175,538.650330 159.247894,531.897705 
	C139.063004,528.436279 119.113297,523.800720 101.345482,512.917114 
	C96.837608,510.155884 92.883156,506.491150 88.322792,502.970123 
	C89.329010,506.549835 90.115257,509.727936 91.114212,512.837646 
	C96.652374,530.078003 104.658897,545.738953 119.541962,556.972595 
	C131.679520,566.134033 145.713074,570.470276 160.431534,573.007019 
	C185.028442,577.246155 209.900879,576.556824 234.700363,576.882690 
	C258.027252,577.189270 281.369965,576.671936 304.686737,577.263794 
	C328.466339,577.867493 351.757629,581.718201 373.386688,592.290161 
	C401.102051,605.837036 418.419922,627.259644 422.457062,658.963989 
	C423.342010,657.119751 424.362274,655.642029 424.787018,654.009460 
	C429.884460,634.417053 431.240112,614.638367 427.452179,594.641296 
	C420.271851,556.735229 396.879578,531.302307 364.321564,513.116394 
	C339.648804,499.335022 312.761902,491.901825 285.163025,486.997101 
	C260.761627,482.660614 236.136810,479.535278 211.805893,474.859192 
	C178.403076,468.439697 146.050507,458.433044 115.675446,442.792175 
	C96.602364,432.970978 78.810669,421.405060 65.653526,403.931580 
	C63.969639,401.695251 62.409004,399.366119 60.326469,396.423157 
	C60.828941,400.298645 61.178436,403.272858 61.608810,406.235321 
	C62.039337,409.198822 62.536690,412.152924 63.028770,415.107147 
	C70.525520,460.113770 95.572746,489.935913 139.162338,504.385773 
	C171.089783,514.969666 204.103043,519.946777 237.142303,524.990417 
	C261.647949,528.731445 286.254913,531.882080 310.659790,536.185730 
	C328.667480,539.361389 346.129059,544.834656 361.919342,554.157715 
	C361.790588,554.360962 361.661804,554.564148 360.785919,554.656555 
M347.808258,343.450562 
	C330.307526,336.245056 312.815338,329.018707 295.304230,321.838470 
	C261.146362,307.832397 227.421646,292.929840 196.742706,272.081207 
	C118.931335,219.202499 65.992310,147.714142 37.424847,58.162472 
	C34.007961,47.451412 31.469683,36.460072 28.361338,24.998255 
	C22.355137,60.772419 22.547087,95.868446 28.900818,130.925064 
	C41.649391,201.265076 75.359772,259.793976 128.404526,307.422363 
	C162.760223,338.270020 203.168671,358.437744 246.128403,374.066620 
	C274.676117,384.452393 303.442505,394.259766 331.806976,405.120056 
	C359.493500,415.720734 386.034698,428.777771 409.811981,446.796692 
	C440.960663,470.401825 463.599274,499.988464 473.423828,538.415710 
	C477.454865,554.182434 478.147064,572.716003 475.093262,583.852783 
	C474.766327,581.831543 474.483551,580.382812 474.302673,578.921448 
	C468.888580,535.178162 448.379639,499.362885 416.301422,469.912567 
	C396.702179,451.918976 372.803070,441.304810 347.934662,432.945099 
	C310.473572,420.352203 272.812927,408.354126 235.314163,395.871826 
	C185.406708,379.259003 138.772949,356.383636 97.878845,322.804504 
	C61.995991,293.340240 33.275364,258.622681 18.518591,213.758301 
	C18.332653,213.193008 17.820234,212.735123 17.110252,211.733292 
	C16.535381,249.739929 24.443405,285.163696 41.120117,318.456268 
	C68.637344,373.390320 109.823174,414.031677 167.620026,436.421204 
	C201.498795,449.545288 237.137817,456.602722 272.356995,465.039673 
	C310.072052,474.074585 347.261414,484.604065 381.196991,504.199829 
	C403.390289,517.015076 422.945496,532.885071 433.759888,556.594604 
	C456.422424,606.279968 450.789368,654.054871 420.998901,699.162170 
	C414.858063,708.460327 406.819794,716.505310 399.751648,725.012817 
	C399.463318,724.905579 399.636292,725.039246 399.772827,725.008911 
	C400.412811,724.866699 401.059692,724.725586 401.673859,724.501282 
	C435.427460,712.169739 463.803162,692.133179 486.593079,664.409180 
	C521.628052,621.789062 536.508423,573.033752 530.048889,518.059631 
	C525.846436,482.294159 513.239563,449.756866 491.461700,421.009125 
	C470.984375,393.978149 444.520752,374.024414 414.928070,358.034943 
	C379.388397,338.832275 341.332733,325.955109 302.910706,314.053497 
	C302.290741,313.861481 301.559296,314.029480 300.879852,314.029480 
	C302.499451,315.831909 304.328674,316.850159 306.141968,317.896057 
	C320.508606,326.182648 334.872284,334.474548 348.846466,343.197662 
	C348.733032,343.355408 348.619629,343.513184 347.808258,343.450562 
M486.549896,220.945786 
	C485.349304,219.614929 484.148743,218.284058 482.023499,215.928192 
	C490.103546,244.934845 508.708130,261.059814 535.992676,268.469971 
	C495.044800,277.096436 461.420227,297.114197 433.843781,328.440552 
	C461.652588,346.407410 485.121307,367.951752 505.434570,392.953796 
	C541.098328,436.849701 562.191345,486.471985 564.282959,543.484558 
	C565.517822,577.145752 559.395020,609.372437 544.841736,639.848389 
	C527.259094,676.668396 500.916382,706.411194 469.258118,731.540710 
	C421.588867,769.379333 367.762146,795.705627 310.299316,815.002625 
	C307.972229,815.784058 305.657715,816.602844 303.337372,817.404297 
	C305.013000,818.061951 306.521088,818.096497 307.933105,817.745117 
	C350.551300,807.139160 392.500061,794.490601 432.387909,775.825928 
	C469.965851,758.242065 505.135284,736.977295 534.902771,707.599670 
	C577.884949,665.180664 601.239990,614.168152 601.763245,553.461853 
	C602.081604,516.529785 593.774292,481.224152 579.570190,447.227814 
	C578.833740,445.465088 578.149780,443.355438 578.413696,441.549438 
	C581.420349,420.976715 584.054199,400.323975 587.960999,379.917297 
	C590.530518,366.496063 595.008850,353.440338 598.724060,339.886627 
	C597.964478,339.362915 596.617920,338.434540 596.243713,338.176575 
	C601.961731,337.025574 608.323242,335.749207 614.683105,334.464020 
	C633.143005,330.733734 651.643860,327.207764 670.617249,329.054779 
	C680.229797,329.990540 689.619934,331.752777 694.888916,341.867310 
	C696.761169,330.430786 690.775879,320.240295 679.458069,315.192444 
	C667.104370,309.682556 653.853699,308.348846 640.600037,306.971985 
	C629.699463,305.839539 618.782837,304.711578 607.966309,302.995575 
	C603.867310,302.345337 599.294373,299.866943 600.166382,294.834778 
	C601.061340,289.670074 606.291565,289.932556 610.359192,289.912109 
	C620.227661,289.862549 628.755188,293.843079 636.652039,299.402374 
	C638.851868,300.950928 640.989990,302.587280 643.772522,304.637329 
	C641.760437,285.256927 634.481812,269.662659 619.574341,258.325012 
	C610.015686,251.055359 598.373169,248.978867 586.897278,247.033554 
	C565.904663,243.475006 544.778809,240.661819 523.855469,236.751617 
	C510.655121,234.284714 497.461151,231.011414 486.549896,220.945786 
M1614.437744,420.499908 
	C1614.437744,464.909607 1614.437744,509.319275 1614.437744,553.700562 
	C1626.231445,553.700562 1637.318115,553.700562 1649.122070,553.700562 
	C1649.122070,519.840698 1649.122070,486.277313 1649.122070,451.327850 
	C1651.068604,454.087280 1652.128540,455.563721 1653.161987,457.058472 
	C1674.742310,488.273956 1696.310303,519.498047 1717.932007,550.684875 
	C1718.816772,551.961121 1720.176514,553.804382 1721.357788,553.837036 
	C1730.760986,554.096436 1740.174561,553.981567 1749.550659,553.981567 
	C1749.550659,499.808899 1749.550659,446.407684 1749.550659,392.741150 
	C1738.230103,392.741150 1727.190674,392.741150 1715.606689,392.741150 
	C1715.606689,426.627502 1715.606689,460.152069 1715.606689,493.676636 
	C1713.425049,492.563202 1712.268311,491.059662 1711.195190,489.498566 
	C1689.791504,458.364594 1668.409302,427.215851 1646.963501,396.111053 
	C1645.985840,394.693146 1644.483643,392.650299 1643.170898,392.608124 
	C1633.756226,392.305756 1624.327271,392.446472 1614.438232,392.446472 
	C1614.438232,401.909821 1614.438232,410.704865 1614.437744,420.499908 
M1062.551636,492.154388 
	C1040.682129,460.323822 1018.823425,428.485901 996.911072,396.684906 
	C995.826111,395.110352 994.317627,392.693756 992.932861,392.642181 
	C983.376343,392.286194 973.800293,392.454865 964.414062,392.454865 
	C964.414062,446.764587 964.414062,500.309296 964.414062,553.755859 
	C975.763367,553.755859 986.710144,553.755859 998.270020,553.755859 
	C998.270020,520.009216 998.270020,486.502258 998.270020,452.995300 
	C1000.937866,454.656708 1002.465271,456.715332 1003.920837,458.823486 
	C1025.012817,489.371460 1046.082520,519.934814 1067.220581,550.450745 
	C1068.182129,551.838989 1069.710693,553.782837 1071.027222,553.824585 
	C1080.286743,554.118164 1089.559937,553.980286 1098.758545,553.980286 
	C1098.758545,499.831451 1098.758545,446.297455 1098.758545,392.695923 
	C1087.455811,392.695923 1076.533569,392.695923 1065.103882,392.695923 
	C1065.103882,394.794403 1065.104004,396.580811 1065.104004,398.367218 
	C1065.104004,428.522949 1065.104736,458.678680 1065.101318,488.834412 
	C1065.101196,490.166077 1065.062256,491.497742 1065.041504,492.829407 
	C1064.357056,492.812836 1063.672607,492.796265 1062.551636,492.154388 
M1229.364380,517.178833 
	C1235.040161,516.145447 1237.861816,518.217346 1239.326782,524.144531 
	C1241.554199,533.156982 1244.875732,541.908569 1247.971069,550.686829 
	C1248.442261,552.023193 1250.176880,553.830750 1251.361084,553.856567 
	C1262.503662,554.098450 1273.653442,554.000244 1285.261475,554.000244 
	C1284.796509,552.323303 1284.517212,551.058289 1284.097900,549.841614 
	C1266.437866,498.593689 1248.739990,447.358704 1231.160645,396.083160 
	C1230.178589,393.218719 1228.847778,392.263519 1225.853638,392.307587 
	C1214.356445,392.476929 1202.850952,392.553741 1191.357788,392.280853 
	C1187.235718,392.182953 1185.328125,393.337555 1183.934082,397.446289 
	C1172.235474,431.927734 1160.237915,466.307800 1148.355225,500.726898 
	C1142.286255,518.305542 1136.268066,535.901672 1130.120483,553.799744 
	C1142.482056,553.799744 1154.422974,553.799744 1166.718628,553.799744 
	C1170.258301,542.950073 1173.907471,532.105591 1177.289795,521.178467 
	C1178.233154,518.130737 1179.650879,517.059570 1182.904419,517.098450 
	C1198.068481,517.279541 1213.235840,517.178894 1229.364380,517.178833 
M1544.260986,440.189636 
	C1539.184814,425.414886 1534.047119,410.660706 1529.089355,395.846313 
	C1528.200806,393.191437 1526.928467,392.270477 1524.109009,392.309174 
	C1512.451172,392.469330 1500.785645,392.556946 1489.132446,392.275482 
	C1485.164551,392.179657 1483.350342,393.316589 1482.031616,397.183929 
	C1468.891724,435.718903 1455.525757,474.176788 1442.241455,512.662537 
	C1437.535034,526.296997 1432.876709,539.947998 1428.112427,553.836731 
	C1440.537842,553.836731 1452.502930,553.836731 1464.724121,553.836731 
	C1468.235474,543.035828 1471.801758,532.332703 1475.160767,521.564941 
	C1476.117554,518.497314 1477.340942,517.018555 1480.992188,517.071899 
	C1497.645752,517.315369 1514.305542,517.258362 1530.961304,517.106445 
	C1533.997803,517.078735 1535.290283,518.039001 1536.178711,520.931580 
	C1539.251099,530.936951 1542.551147,540.875854 1545.996948,550.759033 
	C1546.456909,552.078308 1548.234253,553.834167 1549.434326,553.859924 
	C1560.557495,554.097961 1571.687744,554.000549 1583.552612,554.000549 
	C1570.431152,515.917114 1557.508423,478.410400 1544.260986,440.189636 
M905.993469,475.494354 
	C896.994202,449.417175 887.895203,423.373505 879.103821,397.226440 
	C877.792297,393.325714 876.028809,392.170593 872.044556,392.276733 
	C861.224426,392.565063 850.381165,392.653412 839.568481,392.249023 
	C834.743408,392.068573 832.692261,393.703491 831.157837,398.192596 
	C814.011230,448.356354 796.653442,498.447906 779.362549,548.562378 
	C778.794434,550.209106 778.332214,551.892395 777.684509,554.001709 
	C789.357422,554.001709 800.342224,554.116455 811.317932,553.852356 
	C812.647583,553.820312 814.619934,551.988770 815.119751,550.575684 
	C818.554626,540.864685 821.820679,531.086670 824.813904,521.230896 
	C825.744263,518.167480 827.023254,517.067688 830.290710,517.100952 
	C846.947205,517.270630 863.607422,517.281433 880.263489,517.092163 
	C883.579163,517.054443 884.906860,518.272644 885.818787,521.230591 
	C888.854370,531.077454 892.034058,540.882751 895.383850,550.626465 
	C895.847107,551.973877 897.558533,553.826965 898.726562,553.852295 
	C910.000000,554.096008 921.280884,553.998352 933.096619,553.998352 
	C924.007080,527.721680 915.105347,501.988129 905.993469,475.494354 
M628.124878,509.221039 
	C630.219788,526.815735 638.298767,540.754700 654.646484,548.234619 
	C679.545532,559.627075 705.177185,559.793701 730.096985,548.670288 
	C746.666931,541.273987 755.230713,527.186096 755.641235,508.916534 
	C756.036560,491.322266 748.096313,477.930511 732.523804,469.964508 
	C724.182678,465.697632 714.983948,463.032501 706.040894,460.036926 
	C696.148499,456.723419 685.653503,454.849182 676.241272,450.551636 
	C664.004578,444.964417 664.053162,430.086609 675.543213,422.994720 
	C683.407227,418.140869 692.106201,418.071106 700.705994,419.457733 
	C710.563171,421.047119 718.133362,425.893066 720.229858,436.686157 
	C720.397888,437.551392 721.583679,438.867371 722.311951,438.877594 
	C732.562927,439.021759 742.816650,438.975555 753.252197,438.975555 
	C753.014832,423.879150 747.346680,412.003418 736.101257,403.213837 
	C715.022217,386.738220 675.843933,386.283844 652.925171,400.879974 
	C627.526733,417.055328 621.803040,459.915070 655.304321,474.993378 
	C666.718079,480.130493 679.200134,482.858368 691.092102,486.981049 
	C699.201050,489.792236 707.312927,492.728485 715.075745,496.353638 
	C719.610229,498.471283 721.145081,503.207764 721.022339,508.208740 
	C720.854797,515.030579 717.260559,519.841614 711.621338,523.117798 
	C700.554504,529.547302 688.955322,528.700989 677.363708,524.872986 
	C667.126770,521.492310 661.991638,513.829834 660.812317,503.492615 
	C649.666199,503.492615 638.931946,503.492615 628.082092,503.492615 
	C628.082092,505.344482 628.082092,506.835632 628.124878,509.221039 
M1018.502869,725.996643 
	C1037.846802,744.327332 1060.691284,751.658325 1086.831909,746.264771 
	C1126.857422,738.006470 1152.231567,701.403625 1146.016846,660.571106 
	C1137.505005,604.647583 1072.500366,577.970154 1026.997314,611.656921 
	C989.263550,639.591980 985.568604,691.198547 1018.502869,725.996643 
M1339.902466,535.499512 
	C1339.902466,541.586243 1339.902466,547.672974 1339.902466,553.699951 
	C1351.526245,553.699951 1362.432983,553.699951 1373.983398,553.699951 
	C1373.983398,509.221924 1373.983398,465.048218 1373.983398,420.352814 
	C1390.690308,420.352814 1406.752197,420.352814 1422.873291,420.352814 
	C1422.873291,410.869659 1422.873291,401.917969 1422.873291,392.768097 
	C1378.659180,392.768097 1334.650391,392.768097 1290.504639,392.768097 
	C1290.504639,402.094208 1290.504639,411.015808 1290.504639,420.578003 
	C1306.967285,420.578003 1323.180420,420.578003 1339.902466,420.578003 
	C1339.902466,458.978912 1339.902466,496.739258 1339.902466,535.499512 
M722.288147,607.192993 
	C720.871399,605.138428 719.607117,602.952454 717.987366,601.072815 
	C716.787964,599.680969 715.200012,597.807434 713.656799,597.677917 
	C708.560425,597.250122 703.405701,597.516663 698.125732,597.516663 
	C698.125732,648.189941 698.125732,698.411865 698.125732,748.677917 
	C704.236023,748.677917 710.120605,748.677917 716.351685,748.677917 
	C716.351685,708.987610 716.351685,669.620300 716.351685,630.252991 
	C718.542847,631.359436 719.769226,632.975464 720.924561,634.640808 
	C746.619995,671.678345 772.295532,708.729797 798.045166,745.729675 
	C798.979797,747.072754 800.568726,748.752930 801.952820,748.850037 
	C807.196838,749.218018 812.482178,748.998108 817.710693,748.998108 
	C817.710693,698.253784 817.710693,648.047852 817.710693,597.817444 
	C811.672363,597.817444 805.928528,597.817444 799.672974,597.817444 
	C799.672974,637.620911 799.672974,677.122070 799.672974,716.623230 
	C799.318420,716.747742 798.963867,716.872253 798.609314,716.996765 
	C773.319763,680.582947 748.030273,644.169189 722.288147,607.192993 
M1650.774414,720.500122 
	C1650.774414,707.549194 1650.774414,694.598267 1650.774414,681.427673 
	C1677.811523,681.427673 1704.379883,681.427673 1731.516846,681.427673 
	C1731.516846,704.045593 1731.516846,726.428894 1731.516846,748.622070 
	C1737.991089,748.622070 1743.889771,748.622070 1749.655273,748.622070 
	C1749.655273,698.143372 1749.655273,648.056030 1749.655273,597.840149 
	C1743.530640,597.840149 1737.641357,597.840149 1731.463745,597.840149 
	C1731.463745,620.298157 1731.463745,642.408630 1731.463745,664.711792 
	C1704.441040,664.711792 1677.713867,664.711792 1650.510010,664.711792 
	C1650.510010,642.227539 1650.510010,620.015442 1650.510010,597.753357 
	C1644.262451,597.753357 1638.494751,597.753357 1632.521240,597.753357 
	C1632.521240,648.226074 1632.521240,698.434998 1632.521240,748.705750 
	C1638.678467,748.705750 1644.570923,748.705750 1650.774414,748.705750 
	C1650.774414,739.434692 1650.774414,730.467407 1650.774414,720.500122 
M1366.500000,613.829529 
	C1383.118286,613.829529 1399.736694,613.829529 1416.602173,613.829529 
	C1416.602173,608.265137 1416.602173,603.173340 1416.602173,597.908569 
	C1386.178467,597.908569 1355.821533,597.908569 1325.519287,597.908569 
	C1325.519287,648.418030 1325.519287,698.518311 1325.519287,748.656311 
	C1356.474487,748.656311 1387.178345,748.656311 1417.692993,748.656311 
	C1417.692993,743.202698 1417.692993,738.104980 1417.692993,732.643494 
	C1392.970947,732.643494 1368.542358,732.643494 1344.064209,732.643494 
	C1344.064209,715.361633 1344.064209,698.456116 1344.064209,681.172913 
	C1366.774414,681.172913 1389.191650,681.172913 1411.719482,681.172913 
	C1411.719482,675.580322 1411.719482,670.373413 1411.719482,664.853394 
	C1388.971191,664.853394 1366.535034,664.853394 1343.962769,664.853394 
	C1343.962769,647.789062 1343.962769,631.042969 1343.962769,613.829529 
	C1351.266235,613.829529 1358.383179,613.829529 1366.500000,613.829529 
M1461.958252,649.507202 
	C1459.012573,663.342896 1458.845215,677.234680 1460.934082,691.205994 
	C1466.318726,727.220825 1493.110962,753.021851 1531.476562,750.974915 
	C1559.171997,749.497253 1582.563843,729.350342 1586.928955,701.823975 
	C1582.067627,701.823975 1577.266357,702.005066 1572.487305,701.756958 
	C1569.548706,701.604553 1568.838623,702.924133 1567.760986,705.429016 
	C1565.624756,710.394531 1563.372681,715.694275 1559.791870,719.590759 
	C1539.011108,742.203735 1500.812744,737.686279 1486.191040,710.614990 
	C1473.773804,687.624939 1473.893799,663.493958 1484.065063,639.813843 
	C1491.897339,621.578674 1509.270630,611.866516 1528.435059,612.614624 
	C1546.558350,613.321960 1563.853638,624.035034 1568.570435,643.358215 
	C1568.683228,643.820251 1569.064819,644.216797 1569.327148,644.654053 
	C1575.146606,644.654053 1580.947021,644.654053 1586.884155,644.654053 
	C1586.826904,643.820129 1586.863281,643.150879 1586.725708,642.519409 
	C1575.916016,592.908936 1519.612793,585.748047 1490.404053,606.043823 
	C1475.321289,616.524170 1466.469360,631.105835 1461.958252,649.507202 
M889.785095,681.243530 
	C911.201477,681.243530 932.617859,681.243530 954.097656,681.243530 
	C954.097656,675.468445 954.097656,670.353088 954.097656,664.878845 
	C932.282166,664.878845 910.681763,664.878845 888.970947,664.878845 
	C888.970947,647.775208 888.970947,631.033081 888.970947,613.777832 
	C913.047302,613.777832 936.929565,613.777832 960.927979,613.777832 
	C960.927979,608.157104 960.927979,603.051147 960.927979,597.826172 
	C930.666504,597.826172 900.606750,597.826172 870.595947,597.826172 
	C870.595947,648.376221 870.595947,698.594666 870.595947,748.615784 
	C876.830322,748.615784 882.727356,748.615784 888.770203,748.615784 
	C888.770203,745.568726 888.760803,742.915222 888.771729,740.261841 
	C888.851990,720.781311 888.936279,701.300842 889.785095,681.243530 
M1215.127197,641.500000 
	C1215.127197,677.240234 1215.127197,712.980469 1215.127197,748.658447 
	C1221.585815,748.658447 1227.463745,748.658447 1233.739746,748.658447 
	C1233.739746,703.597656 1233.739746,658.889526 1233.739746,613.715698 
	C1249.707642,613.715698 1265.274780,613.715698 1280.920654,613.715698 
	C1280.920654,608.140564 1280.920654,603.035767 1280.920654,597.747681 
	C1243.158447,597.747681 1205.607422,597.747681 1167.954346,597.747681 
	C1167.954346,603.219604 1167.954346,608.429565 1167.954346,614.089600 
	C1183.871582,614.089600 1199.433716,614.089600 1215.127197,614.089600 
	C1215.127197,623.199463 1215.127197,631.849731 1215.127197,641.500000 
M627.252441,744.299255 
	C627.323242,745.750977 627.393982,747.202759 627.468262,748.726135 
	C633.659363,748.726135 639.549316,748.726135 645.419800,748.726135 
	C645.419800,720.411377 645.419800,692.390808 645.419800,664.350586 
	C639.296326,664.350586 633.534058,664.350586 627.252441,664.350586 
	C627.252441,690.836670 627.252441,717.086060 627.252441,744.299255 
M634.585510,620.893738 
	C638.178894,620.893738 641.772278,620.893738 645.428772,620.893738 
	C645.428772,612.815796 645.428772,605.316467 645.428772,597.852600 
	C639.195312,597.852600 633.324951,597.852600 627.520874,597.852600 
	C627.520874,605.639465 627.520874,613.042114 627.520874,620.893738 
	C629.735840,620.893738 631.683167,620.893738 634.585510,620.893738 
M298.775574,313.068542 
	C298.366364,313.199127 297.957123,313.329681 297.547913,313.460266 
	C297.649323,313.665955 297.750702,313.871613 297.852112,314.077301 
	C298.399658,313.731903 298.947235,313.386505 298.775574,313.068542 
z"/>
<path fill="#010101" opacity="1.000000" stroke="none" 
	d="
M349.236847,342.764801 
	C334.872284,334.474548 320.508606,326.182648 306.141968,317.896057 
	C304.328674,316.850159 302.499451,315.831909 300.879852,314.029480 
	C301.559296,314.029480 302.290741,313.861481 302.910706,314.053497 
	C341.332733,325.955109 379.388397,338.832275 414.928070,358.034943 
	C444.520752,374.024414 470.984375,393.978149 491.461700,421.009125 
	C513.239563,449.756866 525.846436,482.294159 530.048889,518.059631 
	C536.508423,573.033752 521.628052,621.789062 486.593079,664.409180 
	C463.803162,692.133179 435.427460,712.169739 401.673859,724.501282 
	C401.059692,724.725586 400.412811,724.866699 399.772827,725.008911 
	C399.636292,725.039246 399.463318,724.905579 399.751648,725.012817 
	C406.819794,716.505310 414.858063,708.460327 420.998901,699.162170 
	C450.789368,654.054871 456.422424,606.279968 433.759888,556.594604 
	C422.945496,532.885071 403.390289,517.015076 381.196991,504.199829 
	C347.261414,484.604065 310.072052,474.074585 272.356995,465.039673 
	C237.137817,456.602722 201.498795,449.545288 167.620026,436.421204 
	C109.823174,414.031677 68.637344,373.390320 41.120117,318.456268 
	C24.443405,285.163696 16.535381,249.739929 17.110252,211.733292 
	C17.820234,212.735123 18.332653,213.193008 18.518591,213.758301 
	C33.275364,258.622681 61.995991,293.340240 97.878845,322.804504 
	C138.772949,356.383636 185.406708,379.259003 235.314163,395.871826 
	C272.812927,408.354126 310.473572,420.352203 347.934662,432.945099 
	C372.803070,441.304810 396.702179,451.918976 416.301422,469.912567 
	C448.379639,499.362885 468.888580,535.178162 474.302673,578.921448 
	C474.483551,580.382812 474.766327,581.831543 475.093262,583.852783 
	C478.147064,572.716003 477.454865,554.182434 473.423828,538.415710 
	C463.599274,499.988464 440.960663,470.401825 409.811981,446.796692 
	C386.034698,428.777771 359.493500,415.720734 331.806976,405.120056 
	C303.442505,394.259766 274.676117,384.452393 246.128403,374.066620 
	C203.168671,358.437744 162.760223,338.270020 128.404526,307.422363 
	C75.359772,259.793976 41.649391,201.265076 28.900818,130.925064 
	C22.547087,95.868446 22.355137,60.772419 28.361338,24.998255 
	C31.469683,36.460072 34.007961,47.451412 37.424847,58.162472 
	C65.992310,147.714142 118.931335,219.202499 196.742706,272.081207 
	C227.421646,292.929840 261.146362,307.832397 295.304230,321.838470 
	C312.815338,329.018707 330.307526,336.245056 348.403748,343.716187 
	C349.262054,343.911255 349.524933,343.840668 349.787781,343.770111 
	C349.604126,343.434998 349.420502,343.099915 349.236847,342.764801 
z"/>
<path fill="#020202" opacity="1.000000" stroke="none" 
	d="
M486.796814,221.209015 
	C497.461151,231.011414 510.655121,234.284714 523.855469,236.751617 
	C544.778809,240.661819 565.904663,243.475006 586.897278,247.033554 
	C598.373169,248.978867 610.015686,251.055359 619.574341,258.325012 
	C634.481812,269.662659 641.760437,285.256927 643.772522,304.637329 
	C640.989990,302.587280 638.851868,300.950928 636.652039,299.402374 
	C628.755188,293.843079 620.227661,289.862549 610.359192,289.912109 
	C606.291565,289.932556 601.061340,289.670074 600.166382,294.834778 
	C599.294373,299.866943 603.867310,302.345337 607.966309,302.995575 
	C618.782837,304.711578 629.699463,305.839539 640.600037,306.971985 
	C653.853699,308.348846 667.104370,309.682556 679.458069,315.192444 
	C690.775879,320.240295 696.761169,330.430786 694.888916,341.867310 
	C689.619934,331.752777 680.229797,329.990540 670.617249,329.054779 
	C651.643860,327.207764 633.143005,330.733734 614.683105,334.464020 
	C608.323242,335.749207 601.961731,337.025574 596.243713,338.176575 
	C596.617920,338.434540 597.964478,339.362915 598.724060,339.886627 
	C595.008850,353.440338 590.530518,366.496063 587.960999,379.917297 
	C584.054199,400.323975 581.420349,420.976715 578.413696,441.549438 
	C578.149780,443.355438 578.833740,445.465088 579.570190,447.227814 
	C593.774292,481.224152 602.081604,516.529785 601.763245,553.461853 
	C601.239990,614.168152 577.884949,665.180664 534.902771,707.599670 
	C505.135284,736.977295 469.965851,758.242065 432.387909,775.825928 
	C392.500061,794.490601 350.551300,807.139160 307.933105,817.745117 
	C306.521088,818.096497 305.013000,818.061951 303.337372,817.404297 
	C305.657715,816.602844 307.972229,815.784058 310.299316,815.002625 
	C367.762146,795.705627 421.588867,769.379333 469.258118,731.540710 
	C500.916382,706.411194 527.259094,676.668396 544.841736,639.848389 
	C559.395020,609.372437 565.517822,577.145752 564.282959,543.484558 
	C562.191345,486.471985 541.098328,436.849701 505.434570,392.953796 
	C485.121307,367.951752 461.652588,346.407410 433.843781,328.440552 
	C461.420227,297.114197 495.044800,277.096436 535.992676,268.469971 
	C508.708130,261.059814 490.103546,244.934845 482.023499,215.928192 
	C484.148743,218.284058 485.349304,219.614929 486.796814,221.209015 
z"/>
<path fill="#020202" opacity="1.000000" stroke="none" 
	d="
M362.369415,553.593567 
	C346.129059,544.834656 328.667480,539.361389 310.659790,536.185730 
	C286.254913,531.882080 261.647949,528.731445 237.142303,524.990417 
	C204.103043,519.946777 171.089783,514.969666 139.162338,504.385773 
	C95.572746,489.935913 70.525520,460.113770 63.028770,415.107147 
	C62.536690,412.152924 62.039337,409.198822 61.608810,406.235321 
	C61.178436,403.272858 60.828941,400.298645 60.326469,396.423157 
	C62.409004,399.366119 63.969639,401.695251 65.653526,403.931580 
	C78.810669,421.405060 96.602364,432.970978 115.675446,442.792175 
	C146.050507,458.433044 178.403076,468.439697 211.805893,474.859192 
	C236.136810,479.535278 260.761627,482.660614 285.163025,486.997101 
	C312.761902,491.901825 339.648804,499.335022 364.321564,513.116394 
	C396.879578,531.302307 420.271851,556.735229 427.452179,594.641296 
	C431.240112,614.638367 429.884460,634.417053 424.787018,654.009460 
	C424.362274,655.642029 423.342010,657.119751 422.457062,658.963989 
	C418.419922,627.259644 401.102051,605.837036 373.386688,592.290161 
	C351.757629,581.718201 328.466339,577.867493 304.686737,577.263794 
	C281.369965,576.671936 258.027252,577.189270 234.700363,576.882690 
	C209.900879,576.556824 185.028442,577.246155 160.431534,573.007019 
	C145.713074,570.470276 131.679520,566.134033 119.541962,556.972595 
	C104.658897,545.738953 96.652374,530.078003 91.114212,512.837646 
	C90.115257,509.727936 89.329010,506.549835 88.322792,502.970123 
	C92.883156,506.491150 96.837608,510.155884 101.345482,512.917114 
	C119.113297,523.800720 139.063004,528.436279 159.247894,531.897705 
	C198.626175,538.650330 238.408386,539.867981 278.268097,539.869507 
	C299.495453,539.870300 320.477722,542.309387 340.977051,547.987183 
	C347.681427,549.844116 354.188568,552.413208 361.380432,554.850464 
	C362.465912,555.214966 362.956848,555.385498 363.715088,555.738953 
	C364.584015,555.921875 365.185638,555.921875 366.953461,555.921875 
	C365.386261,555.157898 364.862122,554.902405 364.172424,554.408447 
	C363.461060,553.977783 362.915253,553.785706 362.369415,553.593567 
z"/>
<path fill="#FF7621" opacity="1.000000" stroke="none" 
	d="
M1614.437988,419.999878 
	C1614.438232,410.704865 1614.438232,401.909821 1614.438232,392.446472 
	C1624.327271,392.446472 1633.756226,392.305756 1643.170898,392.608124 
	C1644.483643,392.650299 1645.985840,394.693146 1646.963501,396.111053 
	C1668.409302,427.215851 1689.791504,458.364594 1711.195190,489.498566 
	C1712.268311,491.059662 1713.425049,492.563202 1715.606689,493.676636 
	C1715.606689,460.152069 1715.606689,426.627502 1715.606689,392.741150 
	C1727.190674,392.741150 1738.230103,392.741150 1749.550659,392.741150 
	C1749.550659,446.407684 1749.550659,499.808899 1749.550659,553.981567 
	C1740.174561,553.981567 1730.760986,554.096436 1721.357788,553.837036 
	C1720.176514,553.804382 1718.816772,551.961121 1717.932007,550.684875 
	C1696.310303,519.498047 1674.742310,488.273956 1653.161987,457.058472 
	C1652.128540,455.563721 1651.068604,454.087280 1649.122070,451.327850 
	C1649.122070,486.277313 1649.122070,519.840698 1649.122070,553.700562 
	C1637.318115,553.700562 1626.231445,553.700562 1614.437744,553.700562 
	C1614.437744,509.319275 1614.437744,464.909607 1614.437988,419.999878 
z"/>
<path fill="#FF7620" opacity="1.000000" stroke="none" 
	d="
M1062.769897,492.467041 
	C1063.672607,492.796265 1064.357056,492.812836 1065.041504,492.829407 
	C1065.062256,491.497742 1065.101196,490.166077 1065.101318,488.834412 
	C1065.104736,458.678680 1065.104004,428.522949 1065.104004,398.367218 
	C1065.104004,396.580811 1065.103882,394.794403 1065.103882,392.695923 
	C1076.533569,392.695923 1087.455811,392.695923 1098.758545,392.695923 
	C1098.758545,446.297455 1098.758545,499.831451 1098.758545,553.980286 
	C1089.559937,553.980286 1080.286743,554.118164 1071.027222,553.824585 
	C1069.710693,553.782837 1068.182129,551.838989 1067.220581,550.450745 
	C1046.082520,519.934814 1025.012817,489.371460 1003.920837,458.823486 
	C1002.465271,456.715332 1000.937866,454.656708 998.270020,452.995300 
	C998.270020,486.502258 998.270020,520.009216 998.270020,553.755859 
	C986.710144,553.755859 975.763367,553.755859 964.414062,553.755859 
	C964.414062,500.309296 964.414062,446.764587 964.414062,392.454865 
	C973.800293,392.454865 983.376343,392.286194 992.932861,392.642181 
	C994.317627,392.693756 995.826111,395.110352 996.911072,396.684906 
	C1018.823425,428.485901 1040.682129,460.323822 1062.769897,492.467041 
z"/>
<path fill="#FF7621" opacity="1.000000" stroke="none" 
	d="
M1228.883301,517.178894 
	C1213.235840,517.178894 1198.068481,517.279541 1182.904419,517.098450 
	C1179.650879,517.059570 1178.233154,518.130737 1177.289795,521.178467 
	C1173.907471,532.105591 1170.258301,542.950073 1166.718628,553.799744 
	C1154.422974,553.799744 1142.482056,553.799744 1130.120483,553.799744 
	C1136.268066,535.901672 1142.286255,518.305542 1148.355225,500.726898 
	C1160.237915,466.307800 1172.235474,431.927734 1183.934082,397.446289 
	C1185.328125,393.337555 1187.235718,392.182953 1191.357788,392.280853 
	C1202.850952,392.553741 1214.356445,392.476929 1225.853638,392.307587 
	C1228.847778,392.263519 1230.178589,393.218719 1231.160645,396.083160 
	C1248.739990,447.358704 1266.437866,498.593689 1284.097900,549.841614 
	C1284.517212,551.058289 1284.796509,552.323303 1285.261475,554.000244 
	C1273.653442,554.000244 1262.503662,554.098450 1251.361084,553.856567 
	C1250.176880,553.830750 1248.442261,552.023193 1247.971069,550.686829 
	C1244.875732,541.908569 1241.554199,533.156982 1239.326782,524.144531 
	C1237.861816,518.217346 1235.040161,516.145447 1228.883301,517.178894 
M1206.331055,431.810791 
	C1200.115356,451.072418 1193.899658,470.334045 1187.549316,490.012817 
	C1201.341064,490.012817 1214.516113,490.012817 1228.181396,490.012817 
	C1221.751343,470.276520 1215.478638,451.016296 1209.193481,431.760101 
	C1208.990723,431.138977 1208.662231,430.558838 1208.392456,429.959564 
	C1207.823608,430.332428 1207.254761,430.705322 1206.331055,431.810791 
z"/>
<path fill="#FF7621" opacity="1.000000" stroke="none" 
	d="
M1544.423340,440.546631 
	C1557.508423,478.410400 1570.431152,515.917114 1583.552612,554.000549 
	C1571.687744,554.000549 1560.557495,554.097961 1549.434326,553.859924 
	C1548.234253,553.834167 1546.456909,552.078308 1545.996948,550.759033 
	C1542.551147,540.875854 1539.251099,530.936951 1536.178711,520.931580 
	C1535.290283,518.039001 1533.997803,517.078735 1530.961304,517.106445 
	C1514.305542,517.258362 1497.645752,517.315369 1480.992188,517.071899 
	C1477.340942,517.018555 1476.117554,518.497314 1475.160767,521.564941 
	C1471.801758,532.332703 1468.235474,543.035828 1464.724121,553.836731 
	C1452.502930,553.836731 1440.537842,553.836731 1428.112427,553.836731 
	C1432.876709,539.947998 1437.535034,526.296997 1442.241455,512.662537 
	C1455.525757,474.176788 1468.891724,435.718903 1482.031616,397.183929 
	C1483.350342,393.316589 1485.164551,392.179657 1489.132446,392.275482 
	C1500.785645,392.556946 1512.451172,392.469330 1524.109009,392.309174 
	C1526.928467,392.270477 1528.200806,393.191437 1529.089355,395.846313 
	C1534.047119,410.660706 1539.184814,425.414886 1544.423340,440.546631 
M1497.214966,453.739441 
	C1493.371216,465.711334 1489.527466,477.683258 1485.586304,489.958679 
	C1499.395020,489.958679 1512.552734,489.958679 1526.157959,489.958679 
	C1519.496460,469.485931 1513.003418,449.530731 1506.510254,429.575500 
	C1506.067383,429.581177 1505.624390,429.586853 1505.181519,429.592529 
	C1502.626709,437.397217 1500.071899,445.201904 1497.214966,453.739441 
z"/>
<path fill="#FF7621" opacity="1.000000" stroke="none" 
	d="
M906.098572,475.874481 
	C915.105347,501.988129 924.007080,527.721680 933.096619,553.998352 
	C921.280884,553.998352 910.000000,554.096008 898.726562,553.852295 
	C897.558533,553.826965 895.847107,551.973877 895.383850,550.626465 
	C892.034058,540.882751 888.854370,531.077454 885.818787,521.230591 
	C884.906860,518.272644 883.579163,517.054443 880.263489,517.092163 
	C863.607422,517.281433 846.947205,517.270630 830.290710,517.100952 
	C827.023254,517.067688 825.744263,518.167480 824.813904,521.230896 
	C821.820679,531.086670 818.554626,540.864685 815.119751,550.575684 
	C814.619934,551.988770 812.647583,553.820312 811.317932,553.852356 
	C800.342224,554.116455 789.357422,554.001709 777.684509,554.001709 
	C778.332214,551.892395 778.794434,550.209106 779.362549,548.562378 
	C796.653442,498.447906 814.011230,448.356354 831.157837,398.192596 
	C832.692261,393.703491 834.743408,392.068573 839.568481,392.249023 
	C850.381165,392.653412 861.224426,392.565063 872.044556,392.276733 
	C876.028809,392.170593 877.792297,393.325714 879.103821,397.226440 
	C887.895203,423.373505 896.994202,449.417175 906.098572,475.874481 
M842.618042,490.382904 
	C853.383362,490.382904 864.148682,490.382904 875.767151,490.382904 
	C868.990356,469.492065 862.473999,449.403809 855.957581,429.315552 
	C855.547607,429.304291 855.137695,429.293030 854.727783,429.281769 
	C848.178101,449.452362 841.628418,469.622986 834.887207,490.383301 
	C837.707825,490.383301 839.682861,490.383301 842.618042,490.382904 
z"/>
<path fill="#FF7621" opacity="1.000000" stroke="none" 
	d="
M628.103516,508.773926 
	C628.082092,506.835632 628.082092,505.344482 628.082092,503.492615 
	C638.931946,503.492615 649.666199,503.492615 660.812317,503.492615 
	C661.991638,513.829834 667.126770,521.492310 677.363708,524.872986 
	C688.955322,528.700989 700.554504,529.547302 711.621338,523.117798 
	C717.260559,519.841614 720.854797,515.030579 721.022339,508.208740 
	C721.145081,503.207764 719.610229,498.471283 715.075745,496.353638 
	C707.312927,492.728485 699.201050,489.792236 691.092102,486.981049 
	C679.200134,482.858368 666.718079,480.130493 655.304321,474.993378 
	C621.803040,459.915070 627.526733,417.055328 652.925171,400.879974 
	C675.843933,386.283844 715.022217,386.738220 736.101257,403.213837 
	C747.346680,412.003418 753.014832,423.879150 753.252197,438.975555 
	C742.816650,438.975555 732.562927,439.021759 722.311951,438.877594 
	C721.583679,438.867371 720.397888,437.551392 720.229858,436.686157 
	C718.133362,425.893066 710.563171,421.047119 700.705994,419.457733 
	C692.106201,418.071106 683.407227,418.140869 675.543213,422.994720 
	C664.053162,430.086609 664.004578,444.964417 676.241272,450.551636 
	C685.653503,454.849182 696.148499,456.723419 706.040894,460.036926 
	C714.983948,463.032501 724.182678,465.697632 732.523804,469.964508 
	C748.096313,477.930511 756.036560,491.322266 755.641235,508.916534 
	C755.230713,527.186096 746.666931,541.273987 730.096985,548.670288 
	C705.177185,559.793701 679.545532,559.627075 654.646484,548.234619 
	C638.298767,540.754700 630.219788,526.815735 628.103516,508.773926 
z"/>
<path fill="#0A0A0A" opacity="1.000000" stroke="none" 
	d="
M1018.253052,725.746948 
	C985.568604,691.198547 989.263550,639.591980 1026.997314,611.656921 
	C1072.500366,577.970154 1137.505005,604.647583 1146.016846,660.571106 
	C1152.231567,701.403625 1126.857422,738.006470 1086.831909,746.264771 
	C1060.691284,751.658325 1037.846802,744.327332 1018.253052,725.746948 
M1093.980713,609.078186 
	C1093.697876,609.146240 1093.415161,609.214294 1093.132324,609.282227 
	C1093.327637,609.615234 1093.522827,609.948242 1093.896484,610.955750 
	C1098.153931,620.382812 1102.411377,629.809814 1106.952026,639.864075 
	C1113.755249,639.864075 1121.739746,639.864075 1130.333618,639.864075 
	C1121.703369,625.166687 1110.093384,614.944580 1093.980713,609.078186 
M1095.020508,735.209778 
	C1110.780518,729.536438 1122.276123,719.078308 1130.635742,704.216919 
	C1121.893433,704.216919 1113.963379,704.216919 1107.374512,704.216919 
	C1102.480591,714.772034 1097.906860,724.636292 1092.978638,734.983704 
	C1093.025513,735.233704 1093.072388,735.483643 1093.119263,735.733704 
	C1093.510498,735.587219 1093.901611,735.440735 1095.020508,735.209778 
M1049.739380,735.321167 
	C1050.013550,735.386780 1050.287598,735.452393 1050.561768,735.518005 
	C1050.372192,735.346924 1050.182617,735.175903 1049.900513,734.314148 
	C1045.324097,724.490234 1040.747681,714.666321 1035.925903,704.315918 
	C1029.172241,704.315918 1021.156067,704.315918 1012.652100,704.315918 
	C1019.896606,717.280334 1029.658325,726.846619 1042.662598,732.944275 
	C1044.958618,734.020874 1047.638062,734.280151 1049.739380,735.321167 
M1109.017578,675.473083 
	C1108.623047,682.032776 1108.228516,688.592468 1107.815308,695.460938 
	C1116.262207,695.460938 1124.240234,695.571716 1132.207886,695.337158 
	C1133.355103,695.303345 1135.097168,693.814880 1135.475952,692.646790 
	C1139.980713,678.756226 1139.920166,664.833069 1135.076538,651.021545 
	C1134.728638,650.029480 1133.450684,648.679871 1132.579956,648.661011 
	C1124.302368,648.481445 1116.019287,648.553955 1107.884766,648.553955 
	C1108.288696,657.587646 1108.666504,666.035095 1109.017578,675.473083 
M1008.579224,649.658020 
	C1003.554626,663.569885 1003.275818,677.634155 1007.476807,691.759705 
	C1007.897766,693.174988 1009.497803,695.247192 1010.613281,695.287659 
	C1018.885071,695.587585 1027.172852,695.450195 1034.974121,695.450195 
	C1034.974121,679.573120 1034.974121,664.247864 1034.974121,648.954773 
	C1026.656128,648.954773 1017.898804,648.954773 1008.579224,649.658020 
M1088.491455,695.460571 
	C1091.918823,695.460571 1095.346313,695.460571 1098.782959,695.460571 
	C1101.452026,679.481018 1101.371216,664.166992 1098.693848,648.834229 
	C1090.982910,648.834229 1083.600220,648.834229 1076.215576,648.834229 
	C1076.215576,664.524841 1076.215576,679.918762 1076.215576,695.460632 
	C1080.178589,695.460632 1083.836792,695.460632 1088.491455,695.460571 
M1052.559082,648.543213 
	C1050.725830,648.544861 1048.824707,648.252075 1047.083862,648.653931 
	C1045.967529,648.911743 1044.348267,650.086975 1044.212280,651.032104 
	C1042.093994,665.746521 1042.035767,680.459900 1044.384155,695.122803 
	C1052.245605,695.122803 1059.654541,695.122803 1067.148438,695.122803 
	C1067.148438,679.536987 1067.148438,664.286438 1067.148438,648.543213 
	C1062.451904,648.543213 1057.997192,648.543213 1052.559082,648.543213 
M1034.245850,616.699219 
	C1025.441162,622.737610 1018.109009,630.073792 1013.058472,639.925049 
	C1021.668945,639.925049 1029.622314,639.925049 1036.657959,639.925049 
	C1041.057739,629.287292 1045.244263,619.164734 1049.706421,608.376099 
	C1044.636719,611.057434 1039.726929,613.654236 1034.245850,616.699219 
M1075.908813,722.496460 
	C1075.908813,727.669189 1075.908813,732.841980 1075.908813,739.131836 
	C1089.386841,730.318237 1093.388062,717.496826 1097.158936,704.314514 
	C1089.856934,704.314514 1082.970337,704.314514 1075.908691,704.314514 
	C1075.908691,710.241699 1075.908691,715.870300 1075.908813,722.496460 
M1049.679199,715.707031 
	C1053.416992,724.681641 1057.320923,733.525085 1067.240479,738.602173 
	C1067.240479,726.644592 1067.240479,715.542908 1067.240479,704.258789 
	C1060.187500,704.258789 1053.308594,704.258789 1046.084595,704.258789 
	C1047.223877,708.056458 1048.267944,711.536560 1049.679199,715.707031 
M1094.918823,632.741150 
	C1091.015991,622.452942 1087.185669,612.111755 1076.142578,606.117249 
	C1076.142578,617.956055 1076.142578,628.869263 1076.142578,639.943115 
	C1083.120605,639.943115 1089.862549,639.943115 1096.943970,639.943115 
	C1096.267090,637.625061 1095.668457,635.574646 1094.918823,632.741150 
M1048.204224,633.020447 
	C1047.646606,635.239136 1047.088989,637.457825 1046.475708,639.898438 
	C1053.615723,639.898438 1060.338623,639.898438 1066.993408,639.898438 
	C1066.993408,628.717834 1066.993408,617.787964 1066.993408,605.995972 
	C1056.267212,612.285706 1052.235107,622.160034 1048.204224,633.020447 
z"/>
<path fill="#FF7823" opacity="1.000000" stroke="none" 
	d="
M1339.902466,534.999573 
	C1339.902466,496.739258 1339.902466,458.978912 1339.902466,420.578003 
	C1323.180420,420.578003 1306.967285,420.578003 1290.504639,420.578003 
	C1290.504639,411.015808 1290.504639,402.094208 1290.504639,392.768097 
	C1334.650391,392.768097 1378.659180,392.768097 1422.873291,392.768097 
	C1422.873291,401.917969 1422.873291,410.869659 1422.873291,420.352814 
	C1406.752197,420.352814 1390.690308,420.352814 1373.983398,420.352814 
	C1373.983398,465.048218 1373.983398,509.221924 1373.983398,553.699951 
	C1362.432983,553.699951 1351.526245,553.699951 1339.902466,553.699951 
	C1339.902466,547.672974 1339.902466,541.586243 1339.902466,534.999573 
z"/>
<path fill="#010101" opacity="1.000000" stroke="none" 
	d="
M722.514465,607.474243 
	C748.030273,644.169189 773.319763,680.582947 798.609314,716.996765 
	C798.963867,716.872253 799.318420,716.747742 799.672974,716.623230 
	C799.672974,677.122070 799.672974,637.620911 799.672974,597.817444 
	C805.928528,597.817444 811.672363,597.817444 817.710693,597.817444 
	C817.710693,648.047852 817.710693,698.253784 817.710693,748.998108 
	C812.482178,748.998108 807.196838,749.218018 801.952820,748.850037 
	C800.568726,748.752930 798.979797,747.072754 798.045166,745.729675 
	C772.295532,708.729797 746.619995,671.678345 720.924561,634.640808 
	C719.769226,632.975464 718.542847,631.359436 716.351685,630.252991 
	C716.351685,669.620300 716.351685,708.987610 716.351685,748.677917 
	C710.120605,748.677917 704.236023,748.677917 698.125732,748.677917 
	C698.125732,698.411865 698.125732,648.189941 698.125732,597.516663 
	C703.405701,597.516663 708.560425,597.250122 713.656799,597.677917 
	C715.200012,597.807434 716.787964,599.680969 717.987366,601.072815 
	C719.607117,602.952454 720.871399,605.138428 722.514465,607.474243 
z"/>
<path fill="#070707" opacity="1.000000" stroke="none" 
	d="
M1650.774414,721.000122 
	C1650.774414,730.467407 1650.774414,739.434692 1650.774414,748.705750 
	C1644.570923,748.705750 1638.678467,748.705750 1632.521240,748.705750 
	C1632.521240,698.434998 1632.521240,648.226074 1632.521240,597.753357 
	C1638.494751,597.753357 1644.262451,597.753357 1650.510010,597.753357 
	C1650.510010,620.015442 1650.510010,642.227539 1650.510010,664.711792 
	C1677.713867,664.711792 1704.441040,664.711792 1731.463745,664.711792 
	C1731.463745,642.408630 1731.463745,620.298157 1731.463745,597.840149 
	C1737.641357,597.840149 1743.530640,597.840149 1749.655273,597.840149 
	C1749.655273,648.056030 1749.655273,698.143372 1749.655273,748.622070 
	C1743.889771,748.622070 1737.991089,748.622070 1731.516846,748.622070 
	C1731.516846,726.428894 1731.516846,704.045593 1731.516846,681.427673 
	C1704.379883,681.427673 1677.811523,681.427673 1650.774414,681.427673 
	C1650.774414,694.598267 1650.774414,707.549194 1650.774414,721.000122 
z"/>
<path fill="#050505" opacity="1.000000" stroke="none" 
	d="
M1366.000000,613.829529 
	C1358.383179,613.829529 1351.266235,613.829529 1343.962769,613.829529 
	C1343.962769,631.042969 1343.962769,647.789062 1343.962769,664.853394 
	C1366.535034,664.853394 1388.971191,664.853394 1411.719482,664.853394 
	C1411.719482,670.373413 1411.719482,675.580322 1411.719482,681.172913 
	C1389.191650,681.172913 1366.774414,681.172913 1344.064209,681.172913 
	C1344.064209,698.456116 1344.064209,715.361633 1344.064209,732.643494 
	C1368.542358,732.643494 1392.970947,732.643494 1417.692993,732.643494 
	C1417.692993,738.104980 1417.692993,743.202698 1417.692993,748.656311 
	C1387.178345,748.656311 1356.474487,748.656311 1325.519287,748.656311 
	C1325.519287,698.518311 1325.519287,648.418030 1325.519287,597.908569 
	C1355.821533,597.908569 1386.178467,597.908569 1416.602173,597.908569 
	C1416.602173,603.173340 1416.602173,608.265137 1416.602173,613.829529 
	C1399.736694,613.829529 1383.118286,613.829529 1366.000000,613.829529 
z"/>
<path fill="#040404" opacity="1.000000" stroke="none" 
	d="
M1462.031738,649.095032 
	C1466.469360,631.105835 1475.321289,616.524170 1490.404053,606.043823 
	C1519.612793,585.748047 1575.916016,592.908936 1586.725708,642.519409 
	C1586.863281,643.150879 1586.826904,643.820129 1586.884155,644.654053 
	C1580.947021,644.654053 1575.146606,644.654053 1569.327148,644.654053 
	C1569.064819,644.216797 1568.683228,643.820251 1568.570435,643.358215 
	C1563.853638,624.035034 1546.558350,613.321960 1528.435059,612.614624 
	C1509.270630,611.866516 1491.897339,621.578674 1484.065063,639.813843 
	C1473.893799,663.493958 1473.773804,687.624939 1486.191040,710.614990 
	C1500.812744,737.686279 1539.011108,742.203735 1559.791870,719.590759 
	C1563.372681,715.694275 1565.624756,710.394531 1567.760986,705.429016 
	C1568.838623,702.924133 1569.548706,701.604553 1572.487305,701.756958 
	C1577.266357,702.005066 1582.067627,701.823975 1586.928955,701.823975 
	C1582.563843,729.350342 1559.171997,749.497253 1531.476562,750.974915 
	C1493.110962,753.021851 1466.318726,727.220825 1460.934082,691.205994 
	C1458.845215,677.234680 1459.012573,663.342896 1462.031738,649.095032 
z"/>
<path fill="#060606" opacity="1.000000" stroke="none" 
	d="
M889.402222,681.531921 
	C888.936279,701.300842 888.851990,720.781311 888.771729,740.261841 
	C888.760803,742.915222 888.770203,745.568726 888.770203,748.615784 
	C882.727356,748.615784 876.830322,748.615784 870.595947,748.615784 
	C870.595947,698.594666 870.595947,648.376221 870.595947,597.826172 
	C900.606750,597.826172 930.666504,597.826172 960.927979,597.826172 
	C960.927979,603.051147 960.927979,608.157104 960.927979,613.777832 
	C936.929565,613.777832 913.047302,613.777832 888.970947,613.777832 
	C888.970947,631.033081 888.970947,647.775208 888.970947,664.878845 
	C910.681763,664.878845 932.282166,664.878845 954.097656,664.878845 
	C954.097656,670.353088 954.097656,675.468445 954.097656,681.243530 
	C932.617859,681.243530 911.201477,681.243530 889.402222,681.531921 
z"/>
<path fill="#070707" opacity="1.000000" stroke="none" 
	d="
M1215.127197,641.000000 
	C1215.127197,631.849731 1215.127197,623.199463 1215.127197,614.089600 
	C1199.433716,614.089600 1183.871582,614.089600 1167.954346,614.089600 
	C1167.954346,608.429565 1167.954346,603.219604 1167.954346,597.747681 
	C1205.607422,597.747681 1243.158447,597.747681 1280.920654,597.747681 
	C1280.920654,603.035767 1280.920654,608.140564 1280.920654,613.715698 
	C1265.274780,613.715698 1249.707642,613.715698 1233.739746,613.715698 
	C1233.739746,658.889526 1233.739746,703.597656 1233.739746,748.658447 
	C1227.463745,748.658447 1221.585815,748.658447 1215.127197,748.658447 
	C1215.127197,712.980469 1215.127197,677.240234 1215.127197,641.000000 
z"/>
<path fill="#0A0A0A" opacity="1.000000" stroke="none" 
	d="
M627.252441,743.817383 
	C627.252441,717.086060 627.252441,690.836670 627.252441,664.350586 
	C633.534058,664.350586 639.296326,664.350586 645.419800,664.350586 
	C645.419800,692.390808 645.419800,720.411377 645.419800,748.726135 
	C639.549316,748.726135 633.659363,748.726135 627.468262,748.726135 
	C627.393982,747.202759 627.323242,745.750977 627.252441,743.817383 
z"/>
<path fill="#0C0C0C" opacity="1.000000" stroke="none" 
	d="
M634.107971,620.893738 
	C631.683167,620.893738 629.735840,620.893738 627.520874,620.893738 
	C627.520874,613.042114 627.520874,605.639465 627.520874,597.852600 
	C633.324951,597.852600 639.195312,597.852600 645.428772,597.852600 
	C645.428772,605.316467 645.428772,612.815796 645.428772,620.893738 
	C641.772278,620.893738 638.178894,620.893738 634.107971,620.893738 
z"/>
<path fill="#010101" opacity="1.000000" stroke="none" 
	d="
M299.135193,313.054810 
	C298.947235,313.386505 298.399658,313.731903 297.852112,314.077301 
	C297.750702,313.871613 297.649323,313.665955 297.547913,313.460266 
	C297.957123,313.329681 298.366364,313.199127 299.135193,313.054810 
z"/>
<path fill="#FFFFFF" opacity="1.000000" stroke="none" 
	d="
M349.041656,342.981232 
	C349.420502,343.099915 349.604126,343.434998 349.787781,343.770111 
	C349.524933,343.840668 349.262054,343.911255 348.752686,343.826355 
	C348.619629,343.513184 348.733032,343.355408 349.041656,342.981232 
z"/>
<path fill="#FFFFFF" opacity="1.000000" stroke="none" 
	d="
M364.337982,554.646912 
	C364.862122,554.902405 365.386261,555.157898 366.953461,555.921875 
	C365.185638,555.921875 364.584015,555.921875 363.939606,555.513550 
	C364.043884,554.952393 364.190918,554.799622 364.337982,554.646912 
z"/>
<path fill="#FFFFFF" opacity="1.000000" stroke="none" 
	d="
M362.144379,553.875610 
	C362.915253,553.785706 363.461060,553.977783 364.172424,554.408447 
	C364.190918,554.799622 364.043884,554.952393 363.672302,555.330627 
	C362.956848,555.385498 362.465912,555.214966 361.754028,554.905884 
	C361.661804,554.564148 361.790588,554.360962 362.144379,553.875610 
z"/>
<path fill="#FFFEFD" opacity="1.000000" stroke="none" 
	d="
M1206.508545,431.444519 
	C1207.254761,430.705322 1207.823608,430.332428 1208.392456,429.959564 
	C1208.662231,430.558838 1208.990723,431.138977 1209.193481,431.760101 
	C1215.478638,451.016296 1221.751343,470.276520 1228.181396,490.012817 
	C1214.516113,490.012817 1201.341064,490.012817 1187.549316,490.012817 
	C1193.899658,470.334045 1200.115356,451.072418 1206.508545,431.444519 
z"/>
<path fill="#FFFEFD" opacity="1.000000" stroke="none" 
	d="
M1497.365967,453.372986 
	C1500.071899,445.201904 1502.626709,437.397217 1505.181519,429.592529 
	C1505.624390,429.586853 1506.067383,429.581177 1506.510254,429.575500 
	C1513.003418,449.530731 1519.496460,469.485931 1526.157959,489.958679 
	C1512.552734,489.958679 1499.395020,489.958679 1485.586304,489.958679 
	C1489.527466,477.683258 1493.371216,465.711334 1497.365967,453.372986 
z"/>
<path fill="#FFFDFC" opacity="1.000000" stroke="none" 
	d="
M842.138000,490.383118 
	C839.682861,490.383301 837.707825,490.383301 834.887207,490.383301 
	C841.628418,469.622986 848.178101,449.452362 854.727783,429.281769 
	C855.137695,429.293030 855.547607,429.304291 855.957581,429.315552 
	C862.473999,449.403809 868.990356,469.492065 875.767151,490.382904 
	C864.148682,490.382904 853.383362,490.382904 842.138000,490.383118 
z"/>
<path fill="#FDFDFD" opacity="1.000000" stroke="none" 
	d="
M1109.030884,674.977783 
	C1108.666504,666.035095 1108.288696,657.587646 1107.884766,648.553955 
	C1116.019287,648.553955 1124.302368,648.481445 1132.579956,648.661011 
	C1133.450684,648.679871 1134.728638,650.029480 1135.076538,651.021545 
	C1139.920166,664.833069 1139.980713,678.756226 1135.475952,692.646790 
	C1135.097168,693.814880 1133.355103,695.303345 1132.207886,695.337158 
	C1124.240234,695.571716 1116.262207,695.460938 1107.815308,695.460938 
	C1108.228516,688.592468 1108.623047,682.032776 1109.030884,674.977783 
z"/>
<path fill="#FDFDFD" opacity="1.000000" stroke="none" 
	d="
M1008.860352,649.306396 
	C1017.898804,648.954773 1026.656128,648.954773 1034.974121,648.954773 
	C1034.974121,664.247864 1034.974121,679.573120 1034.974121,695.450195 
	C1027.172852,695.450195 1018.885071,695.587585 1010.613281,695.287659 
	C1009.497803,695.247192 1007.897766,693.174988 1007.476807,691.759705 
	C1003.275818,677.634155 1003.554626,663.569885 1008.860352,649.306396 
z"/>
<path fill="#FDFDFD" opacity="1.000000" stroke="none" 
	d="
M1087.993286,695.460571 
	C1083.836792,695.460632 1080.178589,695.460632 1076.215576,695.460632 
	C1076.215576,679.918762 1076.215576,664.524841 1076.215576,648.834229 
	C1083.600220,648.834229 1090.982910,648.834229 1098.693848,648.834229 
	C1101.371216,664.166992 1101.452026,679.481018 1098.782959,695.460571 
	C1095.346313,695.460571 1091.918823,695.460571 1087.993286,695.460571 
z"/>
<path fill="#FEFEFE" opacity="1.000000" stroke="none" 
	d="
M1053.050781,648.543213 
	C1057.997192,648.543213 1062.451904,648.543213 1067.148438,648.543213 
	C1067.148438,664.286438 1067.148438,679.536987 1067.148438,695.122803 
	C1059.654541,695.122803 1052.245605,695.122803 1044.384155,695.122803 
	C1042.035767,680.459900 1042.093994,665.746521 1044.212280,651.032104 
	C1044.348267,650.086975 1045.967529,648.911743 1047.083862,648.653931 
	C1048.824707,648.252075 1050.725830,648.544861 1053.050781,648.543213 
z"/>
<path fill="#FBFBFB" opacity="1.000000" stroke="none" 
	d="
M1050.140381,734.916870 
	C1047.638062,734.280151 1044.958618,734.020874 1042.662598,732.944275 
	C1029.658325,726.846619 1019.896606,717.280334 1012.652100,704.315918 
	C1021.156067,704.315918 1029.172241,704.315918 1035.925903,704.315918 
	C1040.747681,714.666321 1045.324097,724.490234 1049.982178,734.635010 
	C1050.063721,734.955933 1050.140381,734.916870 1050.140381,734.916870 
z"/>
<path fill="#FAFAFA" opacity="1.000000" stroke="none" 
	d="
M1093.333252,734.500610 
	C1097.906860,724.636292 1102.480591,714.772034 1107.374512,704.216919 
	C1113.963379,704.216919 1121.893433,704.216919 1130.635742,704.216919 
	C1122.276123,719.078308 1110.780518,729.536438 1094.422119,735.047119 
	C1093.660278,734.756531 1093.496826,734.628601 1093.333252,734.500610 
z"/>
<path fill="#FAFAFA" opacity="1.000000" stroke="none" 
	d="
M1034.531494,616.475098 
	C1039.726929,613.654236 1044.636719,611.057434 1049.706421,608.376099 
	C1045.244263,619.164734 1041.057739,629.287292 1036.657959,639.925049 
	C1029.622314,639.925049 1021.668945,639.925049 1013.058472,639.925049 
	C1018.109009,630.073792 1025.441162,622.737610 1034.531494,616.475098 
z"/>
<path fill="#FAFAFA" opacity="1.000000" stroke="none" 
	d="
M1094.490356,609.381592 
	C1110.093384,614.944580 1121.703369,625.166687 1130.333618,639.864075 
	C1121.739746,639.864075 1113.755249,639.864075 1106.952026,639.864075 
	C1102.411377,629.809814 1098.153931,620.382812 1094.009521,610.401428 
	C1094.245117,609.691956 1094.367676,609.536804 1094.490356,609.381592 
z"/>
<path fill="#FDFDFD" opacity="1.000000" stroke="none" 
	d="
M1075.908691,721.997681 
	C1075.908691,715.870300 1075.908691,710.241699 1075.908691,704.314514 
	C1082.970337,704.314514 1089.856934,704.314514 1097.158936,704.314514 
	C1093.388062,717.496826 1089.386841,730.318237 1075.908813,739.131836 
	C1075.908813,732.841980 1075.908813,727.669189 1075.908691,721.997681 
z"/>
<path fill="#FCFCFC" opacity="1.000000" stroke="none" 
	d="
M1049.495605,715.361816 
	C1048.267944,711.536560 1047.223877,708.056458 1046.084595,704.258789 
	C1053.308594,704.258789 1060.187500,704.258789 1067.240479,704.258789 
	C1067.240479,715.542908 1067.240479,726.644592 1067.240479,738.602173 
	C1057.320923,733.525085 1053.416992,724.681641 1049.495605,715.361816 
z"/>
<path fill="#FCFCFC" opacity="1.000000" stroke="none" 
	d="
M1094.994385,633.132690 
	C1095.668457,635.574646 1096.267090,637.625061 1096.943970,639.943115 
	C1089.862549,639.943115 1083.120605,639.943115 1076.142578,639.943115 
	C1076.142578,628.869263 1076.142578,617.956055 1076.142578,606.117249 
	C1087.185669,612.111755 1091.015991,622.452942 1094.994385,633.132690 
z"/>
<path fill="#FCFCFC" opacity="1.000000" stroke="none" 
	d="
M1048.366089,632.642883 
	C1052.235107,622.160034 1056.267212,612.285706 1066.993408,605.995972 
	C1066.993408,617.787964 1066.993408,628.717834 1066.993408,639.898438 
	C1060.338623,639.898438 1053.615723,639.898438 1046.475708,639.898438 
	C1047.088989,637.457825 1047.646606,635.239136 1048.366089,632.642883 
z"/>
<path fill="#FAFAFA" opacity="1.000000" stroke="none" 
	d="
M1093.920288,610.064148 
	C1093.522827,609.948242 1093.327637,609.615234 1093.132324,609.282227 
	C1093.415161,609.214294 1093.697876,609.146240 1094.235596,609.229858 
	C1094.367676,609.536804 1094.245117,609.691956 1093.920288,610.064148 
z"/>
<path fill="#FBFBFB" opacity="1.000000" stroke="none" 
	d="
M1050.028320,734.980408 
	C1050.182617,735.175903 1050.372192,735.346924 1050.561768,735.518005 
	C1050.287598,735.452393 1050.013550,735.386780 1049.939941,735.119019 
	C1050.140381,734.916870 1050.063721,734.955933 1050.028320,734.980408 
z"/>
<path fill="#FAFAFA" opacity="1.000000" stroke="none" 
	d="
M1094.058105,735.089355 
	C1093.901611,735.440735 1093.510498,735.587219 1093.119263,735.733643 
	C1093.072388,735.483643 1093.025513,735.233704 1093.156006,734.742188 
	C1093.496826,734.628601 1093.660278,734.756531 1094.058105,735.089355 
z"/>
</svg>